# xmcd
#
# Track frame offsets:
# 150
# 14876
# 25888
# 46086
# 57601
# 76870
# 90873
# 108268
# 128568
# 144301
# 158206
# 175742
# 193991
# 213519
# 229195
# 241872
#
# Disc length: 3439 seconds
#
# Revision: 0
# Processed by: cddbd v1.5.2PL0 Copyright (c) Steve Scherf et al.
# Submitted via: Audion 3.0.2 (http://www.panic.com/audion/)
#
DISCID=ce0d6d10
DTITLE=aacter - Vario
DYEAR=1900
DGENRE=
TTITLE0=a
TTITLE1=s
TTITLE2=d
TTITLE3=f
TTITLE4=g
TTITLE5=h
TTITLE6=j
TTITLE7=k
TTITLE8=l
TTITLE9=q
TTITLE10=w
TTITLE11=e
TTITLE12=r
TTITLE13=t
TTITLE14=z
TTITLE15=u
EXTD=
EXTT0=
EXTT1=
EXTT2=
EXTT3=
EXTT4=
EXTT5=
EXTT6=
EXTT7=
EXTT8=
EXTT9=
EXTT10=
EXTT11=
EXTT12=
EXTT13=
EXTT14=
EXTT15=
PLAYORDER=
